<?xml version="1.0" encoding="UTF-8"?>
<svg width="20px" height="20px" viewBox="0 0 20 20" version="1.1" xmlns="http://www.w3.org/2000/svg" xmlns:xlink="http://www.w3.org/1999/xlink">
    <title>6FAF5CCD-7E1F-46D4-853D-77F6604AAB6B</title>
    <g id="Page-1" stroke="none" stroke-width="1" fill="none" fill-rule="evenodd">
        <g id="adding-new-API-Calls" transform="translate(-1008.000000, -474.000000)" fill-rule="nonzero">
            <g id="Dropdown/Select/Default-Copy-22" transform="translate(998.000000, 464.000000)">
                <g id="Logo/Circle" transform="translate(10.000000, 10.000000)">
                    <path d="M10.4372976,0.0546227784 L10.9719965,1.0570475 C11.0922098,1.24203361 11.2224409,1.40577132 11.3758381,1.55825986 C11.8235076,2.00510131 12.248637,2.47319116 12.6305648,2.97440352 C13.5365476,4.16181435 14.1476321,5.48046533 14.5840315,6.90660824 C14.845746,7.77779281 14.9878732,8.6714757 14.9985171,9.57515784 C15.0423449,12.27683 14.1144482,14.5966558 12.2436282,16.524636 C11.9380859,16.8296131 11.6112559,17.1120919 11.2606337,17.363323 C11.0753048,17.363323 10.9876492,17.2214587 10.9112637,17.0908435 C10.7691365,16.8514864 10.682107,16.5783819 10.6382792,16.3065274 C10.5725376,15.9796769 10.5293359,15.6528264 10.5506237,15.3153518 L10.5506237,15.1628632 C10.535597,15.1303657 10.372182,0.131492006 10.4372976,0.0546227784 L10.4372976,0.0546227784 Z" id="Path" fill="#599636"></path>
                    <path d="M10.4372976,0.0215002657 C10.4153837,-0.0222464492 10.3934698,0.0108760635 10.3715559,0.0321244679 C10.3821998,0.250858042 10.3058142,0.4458434 10.186227,0.632079415 C10.0547437,0.817065523 9.88068477,0.95892987 9.70599977,1.11141842 C8.73552753,1.95010544 7.97167196,2.96315437 7.35996139,4.09619428 C6.54601693,5.62107977 6.12652248,7.25533205 6.00756137,8.97582785 C5.9530897,9.59640625 6.20416026,11.7862418 6.40013304,12.4180694 C6.93483194,14.0954434 7.8952864,15.5009629 9.1393692,16.7208712 C9.44491143,17.0145992 9.77174144,17.2870787 10.1098414,17.5489341 C10.2081409,17.5489341 10.2187848,17.4614406 10.2413248,17.3964455 C10.2844215,17.2573695 10.3172755,17.115335 10.3396242,16.9714774 L10.5587631,15.3378501 L10.4372976,0.0215002657 Z" id="Path" fill="#6CAC48"></path>
                    <path d="M10.9719965,18.0270232 C10.9939104,17.7770419 11.1141237,17.5695575 11.2449809,17.362698 C11.1134976,17.3083271 11.0158242,17.2002102 10.9394387,17.0795943 C10.873697,16.9708525 10.8192253,16.8402373 10.7766498,16.7202463 C10.6238787,16.2627806 10.5913209,15.7828167 10.5474931,15.3153518 L10.5474931,15.032248 C10.4930215,15.0759948 10.4817515,15.445967 10.4817515,15.5009629 C10.449891,15.9950358 10.3842046,16.4863544 10.2851526,16.9714774 C10.2525948,17.1677127 10.2306809,17.363323 10.1098414,17.5376849 C10.1098414,17.5595583 10.1098414,17.5814316 10.1204853,17.6139292 C10.3170842,18.1913858 10.3709298,18.7794667 10.4041137,19.3787966 L10.4041137,19.5975302 C10.4041137,19.8587606 10.3934698,19.8037647 10.6107303,19.8912582 C10.6983859,19.9237557 10.7960592,19.9350049 10.8837148,20 C10.9494565,20 10.9601004,19.9456291 10.9601004,19.9018824 L10.9275426,19.5425344 L10.9275426,18.5401096 C10.9168987,18.3651228 10.9494565,18.1913858 10.9713704,18.0276481 L10.9719965,18.0270232 Z" id="Path" fill="#C2BFBF"></path>
                </g>
            </g>
        </g>
    </g>
</svg>